<?xml version="1.0" encoding="UTF-8" standalone="no"?>
<svg
   version="1.1"
   width="512"
   height="512"
   id="svg6"
   sodipodi:docname="icon.svg"
   inkscape:version="1.4.2 (ebf0e940d0, 2025-05-08)"
   xmlns:inkscape="http://www.inkscape.org/namespaces/inkscape"
   xmlns:sodipodi="http://sodipodi.sourceforge.net/DTD/sodipodi-0.dtd"
   xmlns="http://www.w3.org/2000/svg"
   xmlns:svg="http://www.w3.org/2000/svg">
  <defs
     id="defs6" />
  <sodipodi:namedview
     id="namedview6"
     pagecolor="#ffffff"
     bordercolor="#000000"
     borderopacity="0.25"
     inkscape:showpageshadow="2"
     inkscape:pageopacity="0.0"
     inkscape:pagecheckerboard="0"
     inkscape:deskcolor="#d1d1d1"
     inkscape:zoom="1.1328125"
     inkscape:cx="316.02759"
     inkscape:cy="279.83448"
     inkscape:window-width="2560"
     inkscape:window-height="1371"
     inkscape:window-x="0"
     inkscape:window-y="0"
     inkscape:window-maximized="1"
     inkscape:current-layer="svg6" />
  <path
     d="M 0,0 C 172.00818,65.0635 342.33536,48.598413 512,0 432.82321,161.53088 471.52985,336.6637 512,512 330.41938,472.36511 159.22001,470.43058 0,512 62.381609,343.68736 62.381609,173.02069 0,0 Z"
     fill="#ff8800"
     id="path1"
     sodipodi:nodetypes="ccccc" />
  <path
     d="M0 0 C1.38917595 0.95076681 2.74400664 1.95341383 4.0625 3 C4.80757813 3.5465625 5.55265625 4.093125 6.3203125 4.65625 C24.20924526 18.9673962 29.00536322 44.48422428 34.1875 65.50195312 C35.03244103 68.87983122 35.91384286 72.24542853 36.8125 75.609375 C40.37370553 88.96190847 43.53455681 102.36637279 46.43530273 115.87451172 C48.40526047 125.04405251 50.47398925 134.18328594 52.625 143.3125 C54.80305718 152.57209703 56.94223219 161.83789567 59 171.125 C59.24073242 172.20434814 59.48146484 173.28369629 59.72949219 174.39575195 C60.99281677 180.08112545 62.22872431 185.77102291 63.42214966 191.47142029 C70.29055563 233.53633171 70.29055563 233.53633171 92.31640625 267.765625 C93.07824219 268.25546875 93.84007812 268.7453125 94.625 269.25 C95.38941406 269.75015625 96.15382813 270.2503125 96.94140625 270.765625 C103.02160937 274.30401208 110.28333342 273.67654989 117.0625 273 C122.454189 271.35019933 125.81750289 268.87919188 128.93359375 264.17578125 C133.0298586 256.3467091 135.14329067 248.73248864 136.0625 240 C138.7025 240 141.3425 240 144.0625 240 C144.65524362 257.73840156 143.58694494 277.77554776 131.8046875 292.15234375 C124.4309934 299.97242741 118.85355845 304.39688507 107.984375 305.23828125 C95.76964337 305.52409394 86.6481462 301.5071183 77.4140625 293.5859375 C58.09176663 273.65023542 55.43380447 235.11648887 50.03735352 209.20605469 C47.35566037 196.33209364 44.55097903 183.49065068 41.66113281 170.66162109 C40.78723195 166.77611243 39.92473428 162.88811254 39.0625 159 C34.30676738 168.15453035 30.11910279 177.51012299 26.00515747 186.965271 C24.43545855 190.57261571 22.85855243 194.17679637 21.28208923 197.78118896 C20.4543343 199.67382544 19.62691459 201.56660857 18.79981995 203.45953369 C14.43607882 213.44368397 10.03300104 223.41032943 5.625 233.375 C4.8429199 235.14338472 4.06085612 236.91177666 3.27880859 238.68017578 C2.0951144 241.35678257 0.91139362 244.03337754 -0.27249146 246.7098999 C-3.28191633 253.51451626 -6.28612055 260.32142684 -9.2890625 267.12890625 C-10.60150001 270.10307976 -11.91402757 273.07721351 -13.22659302 276.05133057 C-14.06943418 277.96162511 -14.911948 279.87206411 -15.75411987 281.78265381 C-16.91983227 284.42710776 -18.08673982 287.0710313 -19.25390625 289.71484375 C-19.59882111 290.49815567 -19.94373596 291.28146759 -20.29910278 292.08851624 C-20.61878021 292.81203781 -20.93845764 293.53555939 -21.26782227 294.28100586 C-21.54360611 294.90631699 -21.81938995 295.53162811 -22.10353088 296.17588806 C-23.00123719 298.13941016 -23.97196433 300.06892866 -24.9375 302 C-38.1375 302 -51.3375 302 -64.9375 302 C-64.01327728 297.37888638 -62.56602015 293.73177482 -60.54296875 289.55078125 C-60.19968033 288.8295256 -59.85639191 288.10826996 -59.50270081 287.36515808 C-58.76532358 285.81731865 -58.02545095 284.27066599 -57.2833252 282.72509766 C-55.71701149 279.46272817 -54.16290178 276.19460022 -52.60836792 272.92660522 C-51.82470575 271.27921481 -51.04046422 269.63209987 -50.25564575 267.98526001 C-47.01464087 261.18020345 -43.83384221 254.3494113 -40.6875 247.5 C-40.2145752 246.47156982 -39.74165039 245.44313965 -39.25439453 244.38354492 C-38.30273677 242.31403858 -37.35123877 240.24445877 -36.39990234 238.17480469 C-33.77931642 232.48563952 -31.13928541 226.80550839 -28.5 221.125 C-27.95956055 219.96162109 -27.41912109 218.79824219 -26.86230469 217.59960938 C-25.76782623 215.24377545 -24.67326221 212.88798128 -23.57861328 210.53222656 C-20.86365807 204.68873176 -18.15067302 198.84432244 -15.4375 193 C-14.35417623 190.66666223 -13.2708429 188.33332889 -12.1875 186 C-11.65125 184.845 -11.115 183.69 -10.5625 182.5 C-8.9375 179 -7.3125 175.5 -5.6875 172 C-5.15084717 170.84411377 -4.61419434 169.68822754 -4.0612793 168.49731445 C-2.9820724 166.17290628 -1.90280843 163.8485246 -0.82348633 161.52416992 C1.66145616 156.17259238 4.14605322 150.82085655 6.62811279 145.46794128 C7.19985476 144.23517465 7.77183415 143.0025181 8.34405518 141.76997375 C9.73667084 138.77001546 11.12543865 135.76838552 12.50830078 132.76391602 C14.82242185 127.74808183 17.15384854 122.75874413 19.69140625 117.8515625 C23.8006249 109.85742005 26.42186433 104.01977083 24.0625 95 C23.71487023 93.47063572 23.37008688 91.94062308 23.02734375 90.41015625 C15.90745067 58.85079877 15.90745067 58.85079877 -3 33.625 C-9.99758649 29.75399471 -15.98621404 28.99497169 -23.9375 30 C-32.56386491 32.86525832 -38.80318802 37.18062741 -43.109375 45.17578125 C-46.26118429 52.15315617 -47.11016456 59.44512114 -47.9375 67 C-50.5775 67 -53.2175 67 -55.9375 67 C-57.28570833 45.81814909 -51.98246652 24.54523186 -38.046875 8.125 C-28.64604032 -1.34547049 -12.55946546 -6.59039089 0 0 Z "
     fill="#FFFDFC"
     transform="translate(216.9375,105)"
     id="path2" />
</svg>
